<?xml version="1.0" encoding="utf-8"?>
<!-- Generator: Adobe Illustrator 24.3.0, SVG Export Plug-In . SVG Version: 6.00 Build 0)  -->
<svg version="1.1" id="图层_1" xmlns="http://www.w3.org/2000/svg" xmlns:xlink="http://www.w3.org/1999/xlink" x="0px" y="0px"
	 viewBox="0 0 200 200" style="enable-background:new 0 0 200 200;" xml:space="preserve">
<style type="text/css">
	.st0{fill:url(#SVGID_1_);}
	.st1{fill:url(#SVGID_2_);}
	.st2{fill:url(#SVGID_3_);}
	.st3{fill:url(#SVGID_4_);}
</style>
<linearGradient id="SVGID_1_" gradientUnits="userSpaceOnUse" x1="-1748.5469" y1="239.3203" x2="-1758.6016" y2="357.3447" gradientTransform="matrix(-0.9848 -0.1736 0.1736 -0.9848 -1623.9603 79.9693)">
	<stop  offset="0" style="stop-color:#82F3E8;stop-opacity:0.21"/>
	<stop  offset="1" style="stop-color:#2CE5E1"/>
</linearGradient>
<path class="st0" d="M162.9,39.6c9.7,1.7,16.2,11,14.5,20.7L162.3,146c-1.7,9.7-11,16.2-20.7,14.5s-16.2-11-14.5-20.7l15.1-85.7
	C143.9,44.3,153.2,37.9,162.9,39.6z"/>
<linearGradient id="SVGID_2_" gradientUnits="userSpaceOnUse" x1="-1651.9395" y1="182.8082" x2="-1686.6633" y2="64.8809" gradientTransform="matrix(-1 0 0 -1 -1548.5399 230.5831)">
	<stop  offset="3.724359e-03" style="stop-color:#85F3E8;stop-opacity:0.21"/>
	<stop  offset="1" style="stop-color:#2CE5E1"/>
</linearGradient>
<path class="st1" d="M97.9,56.9c5.6,0,11.2,2.7,14.7,7.8l46.9,68c5.6,8.2,3.6,19.2-4.6,24.8c-8.2,5.6-19.2,3.6-24.8-4.6l-46.9-68
	c-5.6-8.2-3.6-19.2,4.6-24.8C90.9,57.9,94.3,56.9,97.9,56.9z"/>
<linearGradient id="SVGID_3_" gradientUnits="userSpaceOnUse" x1="-1659.9854" y1="126.5021" x2="-1580.8375" y2="116.5382" gradientTransform="matrix(-1 0 0 -1 -1548.5399 230.5831)">
	<stop  offset="0" style="stop-color:#85F3E8;stop-opacity:0.21"/>
	<stop  offset="0" style="stop-color:#82F3E8;stop-opacity:0.24"/>
	<stop  offset="1" style="stop-color:#2CE5E1"/>
</linearGradient>
<path class="st2" d="M97.9,56.9c3.4,0,7,1,10.1,3.2c8.2,5.6,10.2,16.7,4.6,24.8l-46.9,68c-5.6,8.2-16.7,10.2-24.8,4.6
	c-8.2-5.6-10.2-16.7-4.6-24.8l47-68.2C86.7,59.6,92.3,56.9,97.9,56.9z"/>
<linearGradient id="SVGID_4_" gradientUnits="userSpaceOnUse" x1="-1499.2106" y1="-88.0635" x2="-1509.2654" y2="29.9609" gradientTransform="matrix(-0.9848 0.1736 -0.1736 -0.9848 -1444.3341 322.8099)">
	<stop  offset="0" style="stop-color:#82F3E8;stop-opacity:0.21"/>
	<stop  offset="1" style="stop-color:#2CE5E1;stop-opacity:0.97"/>
	<stop  offset="1" style="stop-color:#2AE7E1"/>
</linearGradient>
<path class="st3" d="M32.3,39.6c9.7-1.7,19,4.8,20.7,14.5l15.1,85.7c1.7,9.7-4.8,19-14.5,20.7s-19-4.8-20.7-14.5L17.8,60.3
	C16.1,50.5,22.6,41.3,32.3,39.6z"/>
</svg>
