<?xml version="1.0" encoding="utf-8"?>
<!-- Generator: Adobe Illustrator 24.3.0, SVG Export Plug-In . SVG Version: 6.00 Build 0)  -->
<svg version="1.1" id="图层_1" xmlns="http://www.w3.org/2000/svg" xmlns:xlink="http://www.w3.org/1999/xlink" x="0px" y="0px"
	 viewBox="0 0 176.3 133.6" style="enable-background:new 0 0 176.3 133.6;" xml:space="preserve">
<style type="text/css">
	.st0{fill:url(#SVGID_1_);}
	.st1{fill:url(#SVGID_2_);}
	.st2{fill:url(#SVGID_3_);}
	.st3{fill:url(#SVGID_4_);}
</style>
<linearGradient id="SVGID_1_" gradientUnits="userSpaceOnUse" x1="51.3872" y1="118.4515" x2="41.3325" y2="0.4271" gradientTransform="matrix(-0.9848 -0.1736 -0.1736 0.9848 201.2894 6.9446)">
	<stop  offset="0" style="stop-color:#82F3E8;stop-opacity:0.21"/>
	<stop  offset="1" style="stop-color:#2CE5E1"/>
</linearGradient>
<path class="st0" d="M153.5,6.4c9.7,1.7,16.2,11,14.5,20.7l-15.1,85.7c-1.7,9.7-11,16.2-20.7,14.5c-9.7-1.7-16.2-11-14.5-20.7
	l15.1-85.7C134.5,11.1,143.8,4.7,153.5,6.4z"/>
<linearGradient id="SVGID_2_" gradientUnits="userSpaceOnUse" x1="81.9518" y1="16.7418" x2="47.2279" y2="134.6691" gradientTransform="matrix(-1 0 0 1 175.8747 -2.0971)">
	<stop  offset="3.724359e-03" style="stop-color:#85F3E8;stop-opacity:0.21"/>
	<stop  offset="1" style="stop-color:#2CE5E1"/>
</linearGradient>
<path class="st1" d="M88.5,23.7c5.6,0,11.2,2.7,14.7,7.8l46.9,68c5.6,8.2,3.6,19.2-4.6,24.8c-8.2,5.6-19.2,3.6-24.8-4.6l-46.9-68
	c-5.6-8.2-3.6-19.2,4.6-24.8C81.5,24.7,84.9,23.7,88.5,23.7z"/>
<linearGradient id="SVGID_3_" gradientUnits="userSpaceOnUse" x1="73.8347" y1="73.0164" x2="152.9825" y2="82.9803" gradientTransform="matrix(-1 0 0 1 175.8747 -2.0971)">
	<stop  offset="0" style="stop-color:#85F3E8;stop-opacity:0.21"/>
	<stop  offset="0" style="stop-color:#82F3E8;stop-opacity:0.24"/>
	<stop  offset="1" style="stop-color:#2CE5E1"/>
</linearGradient>
<path class="st2" d="M88.5,23.7c3.4,0,7,1,10.1,3.2c8.2,5.6,10.2,16.7,4.6,24.8l-46.9,68c-5.6,8.2-16.7,10.2-24.8,4.6
	c-8.2-5.6-10.2-16.7-4.6-24.8l47-68.2C77.3,26.4,82.9,23.7,88.5,23.7z"/>
<linearGradient id="SVGID_4_" gradientUnits="userSpaceOnUse" x1="142.119" y1="143.2016" x2="132.0643" y2="25.1772" gradientTransform="matrix(-0.9848 0.1736 0.1736 0.9848 153.0343 -49.5732)">
	<stop  offset="0" style="stop-color:#82F3E8;stop-opacity:0.21"/>
	<stop  offset="1" style="stop-color:#2CE5E1;stop-opacity:0.97"/>
	<stop  offset="1" style="stop-color:#2AE7E1"/>
</linearGradient>
<path class="st3" d="M22.9,6.4c9.7-1.7,19,4.8,20.7,14.5l15.1,85.7c1.7,9.7-4.8,19-14.5,20.7c-9.7,1.7-19-4.8-20.7-14.5L8.4,27.1
	C6.7,17.3,13.2,8.1,22.9,6.4z"/>
</svg>
