<svg xmlns="http://www.w3.org/2000/svg" xmlns:xlink="http://www.w3.org/1999/xlink" width="279" height="128" viewBox="0 0 279 128" fill="none"><defs><rect id="path_0" x="0" y="0" width="279" height="128" /><linearGradient id="linear_0" x1="74.66324603385513%" y1="27.345896615466774%" x2="98.95684644071957%" y2="39.07654234672886%" gradientUnits="objectBoundingBox"><stop offset="0" stop-color="#23B4FF" stop-opacity="1" /><stop offset="1" stop-color="#5DBEFE" stop-opacity="1" /></linearGradient><linearGradient id="linear_1" x1="7.530293951148967%" y1="42.70088200111336%" x2="89.23029498945479%" y2="56.7108824731695%" gradientUnits="objectBoundingBox"><stop offset="0" stop-color="#FFFFFF" stop-opacity="0.2" /><stop offset="1" stop-color="#FFFFFF" stop-opacity="0.3" /></linearGradient><linearGradient id="linear_2" x1="7.963405055394262%" y1="39.22099786028412%" x2="92.56340156979725%" y2="58.60099561932189%" gradientUnits="objectBoundingBox"><stop offset="0" stop-color="#199BF3" stop-opacity="1" /><stop offset="1" stop-color="#009DFE" stop-opacity="1" /></linearGradient><linearGradient id="linear_3" x1="7.963405055394262%" y1="39.22099786028412%" x2="92.56340156979725%" y2="58.60099561932189%" gradientUnits="objectBoundingBox"><stop offset="0" stop-color="#199BF3" stop-opacity="1" /><stop offset="1" stop-color="#009DFE" stop-opacity="1" /></linearGradient><linearGradient id="linear_4" x1="27.4038469172542%" y1="15.294104410349407%" x2="78.68668431123983%" y2="87.51178245783325%" gradientUnits="objectBoundingBox"><stop offset="0" stop-color="#08F5FF" stop-opacity="1" /><stop offset="1" stop-color="#20C4FF" stop-opacity="1" /></linearGradient><linearGradient id="linear_5" x1="49.97563498350768%" y1="15.912092680308017%" x2="50.97563498350768%" y2="100.0420907838095%" gradientUnits="objectBoundingBox"><stop offset="0" stop-color="#23C6FD" stop-opacity="1" /><stop offset="1" stop-color="#20C7FC" stop-opacity="0" /></linearGradient></defs><g opacity="1" transform="translate(0 0)  rotate(0 139.5 64)"><mask id="bg-mask-0" fill="white"><use xlink:href="#path_0"></use></mask><g mask="url(#bg-mask-0)" ><g opacity="1" transform="translate(-808.0147356367349 -35)  rotate(0 559.5073678183675 116.75480882603871)"><path id="矩形_16246_1_" fill-rule="evenodd" fill="url(#linear_0)" transform="translate(0 33.92128330802916)  rotate(0 547.5269141431951 99.79416717202413)" opacity="1" d="M1092.84,7.67C1094.57,5.26 1095.81,2.63 1094.51,1.08C1092.49,-1.35 1078.76,1.08 1076.01,1.08L820.02,1.08C816.72,1.08 810.19,-1.1 808.01,1.08C805.84,3.25 808.01,9.78 808.01,13.08L808.01,119.08C808.01,123.59 -3.99,197.53 0.01,199.58C1.87,200.53 814,131.08 820.02,131.08L1076.01,131.08C1079.51,131.08 1085.18,132.87 1088.01,131.08C1090.52,129.49 1090.6,124.71 1088.01,119.08L1088.01,13.08C1088.01,13.08 1090.78,10.54 1092.84,7.67Z " /><g opacity="1" transform="translate(771.3147356367349 0)  rotate(0 173.85 102)"><g opacity="1" transform="translate(0 0)  rotate(0 173.85 102)"><g opacity="1" transform="translate(0 0)  rotate(0 173.85 102)"><path id="椭圆_10204_1_" fill-rule="evenodd" style="fill:#FFFFFF" transform="translate(121.7 0)  rotate(0 28.5 28.5)" opacity="0.2" d="M28.5,0C12.76,0 0,12.76 0,28.5C0,44.24 12.76,57 28.5,57C44.24,57 57,44.24 57,28.5C57,12.76 44.24,0 28.5,0Z " /><path  id="路径_16624_1_" style="stroke:#FFFFFF; stroke-width:1; stroke-opacity:1; stroke-dasharray:0 0" transform="translate(9.1 129.52)  rotate(0 169.3 16.89)" d="M0,16.18C0,16.18 41.9,40.58 132.5,9.48C223.1,-21.62 338.6,33.78 338.6,33.78 " /><path  id="路径_16625_1_" style="stroke:#FFFFFF; stroke-width:1; stroke-opacity:1; stroke-dasharray:0 0" transform="translate(0 110.54)  rotate(0 141.45 32.43)" d="M282.9,64.86C169.5,-70.53 0,48.06 0,48.06 " /><path id="椭圆_10205_1_" fill-rule="evenodd" fill="url(#linear_1)" transform="translate(61.7 136)  rotate(0 34 34)" opacity="1" d="M34,0C15.22,0 0,15.22 0,34C0,52.78 15.22,68 34,68C52.78,68 68,52.78 68,34C68,15.22 52.78,0 34,0Z " /></g></g></g></g><g opacity="1" transform="translate(187 42.99999999999956)  rotate(0 32.5 23.534482758620694)"><path id="矩形_16222_1_" fill-rule="evenodd" fill="url(#linear_2)" transform="translate(39.959016393442624 15.970768814920653)  rotate(0 12.520491803278686 2.6354403985017574)" opacity="1" d="M0,2.64C0,4.11 1.17,5.27 2.66,5.27L25.04,5.27L25.04,0L2.66,0C1.17,0 0,1.16 0,2.64Z " /><path id="矩形_16223_1_" fill-rule="evenodd" fill="url(#linear_3)" transform="translate(39.959016393442624 28.093794648028734)  rotate(0 12.520491803278686 2.6354403985017574)" opacity="1" d="M0,2.64C0,4.11 1.17,5.27 2.66,5.27L25.04,5.27L25.04,0L2.66,0C1.17,0 0,1.16 0,2.64Z " /><g opacity="1" transform="translate(8.27950819672131 0)  rotate(0 9.057377049180328 11.754064177317835)"><path id="路径_16604_1_" fill-rule="evenodd" style="fill:#05A5F2" transform="translate(0 5.060045565123371)  rotate(0 9.057377049180328 9.22404139475615)" opacity="1" d="M0,9.22C0,14.34 3.73,18.45 9.06,18.45C14.39,18.45 18.11,14.34 18.11,9.22C18.11,4.11 16.62,0 9.06,0C1.49,0 0,4.11 0,9.22Z " /><path id="路径_16603_1_" fill-rule="evenodd" fill="url(#linear_4)" transform="translate(0 0)  rotate(0 9.057377049180328 10.647179209947101)" opacity="1" d="M0,10.65C0,16.55 3.73,21.29 9.06,21.29C14.39,21.29 18.11,16.5 18.11,10.65C18.11,4.74 16.62,0 9.06,0C1.49,0 0,4.74 0,10.65Z " /></g><path id="矩形_16225_1_" fill-rule="evenodd" style="fill:#189EF2" transform="translate(0 24.404178090126265)  rotate(0 17.315573770491802 9.487585434606327)" opacity="1" d="M0,7.91L0,18.98L34.63,18.98L34.63,7.91C34.63,3.53 31.06,0 26.64,0L7.99,0C3.57,0 0,3.53 0,7.91Z " /><path id="矩形_16224_1_" fill-rule="evenodd" fill="url(#linear_5)" transform="translate(2.663934426229506 24.404178090126265)  rotate(0 14.651639344262298 11.332393713557554)" opacity="1" d="M0,7.91L0,22.66L29.3,22.66L29.3,7.91C29.3,3.53 25.73,0 21.31,0L7.99,0C3.57,0 0,3.53 0,7.91Z " /></g></g></g></svg>