<svg xmlns="http://www.w3.org/2000/svg" fill="none" viewBox="0 0 120 120" height="120" width="120">
<path fill="url(#paint0_linear_8:2156)" d="M87.4893 42.8534H87.8373C87.8175 42.7848 87.8027 42.7163 87.8027 42.6454C87.8027 41.8296 89.1898 41.167 90.9002 41.167C91.7098 41.167 92.4428 41.3155 92.9932 41.5577C93.3141 41.087 93.9533 40.7648 94.6888 40.7648C94.8197 40.7648 94.948 40.7762 95.0714 40.7945C95.4194 40.4243 95.9822 40.1844 96.6214 40.1844C97.5322 40.1844 98.2899 40.6734 98.4873 41.3292C99.1908 41.4343 99.756 41.8365 99.9559 42.3598C100.793 42.6866 101.358 43.3127 101.358 44.0302C101.358 44.8894 100.553 45.6161 99.445 45.8537C99.213 45.9634 98.9489 46.0274 98.67 46.0274H87.4917C86.5439 46.0274 85.7764 45.3167 85.7764 44.4392C85.7764 43.564 86.5439 42.8534 87.4893 42.8534Z"></path>
<path fill="#254580" d="M98.9715 40.4212C98.7107 39.4106 97.7337 38.7105 96.6214 38.7105C95.943 38.7105 95.3222 38.9675 94.878 39.3948C94.8162 39.3902 94.7531 39.3877 94.6888 39.3877C93.9523 39.3877 93.2788 39.6947 92.83 40.1934C92.2685 39.9776 91.6046 39.8569 90.9002 39.8569C89.9761 39.8569 89.1147 40.0647 88.4668 40.4256C87.9091 40.7362 87.4281 41.2137 87.3237 41.8307C86.1492 41.9215 85.2764 42.9703 85.2764 44.1745C85.2764 45.4374 86.2322 46.5274 87.4917 46.5274H98.67C99.0154 46.5274 99.3409 46.4408 99.6276 46.2939C100.864 45.961 101.858 44.9703 101.858 43.6973C101.858 42.6178 101.132 41.7347 100.163 41.2935C99.9119 41.179 99.6154 41.2899 99.5009 41.5412C99.3864 41.7925 99.4973 42.089 99.7486 42.2035C100.454 42.5247 100.858 43.1026 100.858 43.6973C100.858 44.4082 100.276 45.1015 99.3236 45.3397L99.2605 45.3555L99.2035 45.387C99.0401 45.4771 98.8585 45.5274 98.67 45.5274H87.4917C86.8557 45.5274 86.2764 44.9591 86.2764 44.1745C86.2764 43.3926 86.8557 42.8244 87.4893 42.8244H88.4757L88.3227 42.2045C88.307 42.1411 88.3027 42.1059 88.3027 42.0818C88.3027 41.8694 88.4634 41.5722 88.9534 41.2992C89.4265 41.0357 90.1139 40.8569 90.9002 40.8569C91.6432 40.8569 92.2957 41.0167 92.7649 41.2576L93.1861 41.4738L93.4249 41.065C93.6513 40.6776 94.1212 40.3877 94.6888 40.3877C94.786 40.3877 94.8854 40.3976 94.9863 40.415L95.2762 40.4651L95.4607 40.236C95.7104 39.9262 96.1279 39.7105 96.6214 39.7105C97.3306 39.7105 97.8691 40.1514 98.0032 40.6711C98.0722 40.9385 98.3449 41.0993 98.6123 41.0303C98.8797 40.9613 99.0405 40.6886 98.9715 40.4212Z" clip-rule="evenodd" fill-rule="evenodd" opacity="0.6"></path>
<path fill="#F2F2F7" d="M60 106C87.6143 106 110 99.2843 110 91C110 82.7157 87.6143 76 60 76C32.3858 76 10 82.7157 10 91C10 99.2843 32.3858 106 60 106Z"></path>
<path fill="url(#paint1_linear_8:2156)" d="M79.6717 32.3936H40.2675C34.7446 32.3936 30.2675 36.8708 30.2675 42.3936V65.1714V80.727C30.2675 84.6159 33.9802 84.6159 36.4554 82.9492C38.9306 81.2825 43.8809 79.0603 45.7373 79.0603H79.6717C85.1945 79.0603 89.6717 74.5831 89.6717 69.0603V42.3936C89.6717 36.8708 85.1945 32.3936 79.6717 32.3936Z"></path>
<path fill="#28336B" d="M25.3721 39.4721C25.3721 33.397 30.297 28.4721 36.3721 28.4721H75.7763C81.8515 28.4721 86.7763 33.397 86.7763 39.4721V66.1388C86.7763 72.2139 81.8515 77.1388 75.7763 77.1388H41.842C41.5334 77.1388 40.9937 77.2398 40.2499 77.4681C39.5299 77.689 38.6946 78.0048 37.8276 78.3771C36.0865 79.1247 34.2895 80.0688 33.1186 80.8572C31.7281 81.7934 29.9019 82.3309 28.3189 81.9756C27.5021 81.7923 26.7381 81.3646 26.1881 80.6238C25.6428 79.8896 25.3721 78.9349 25.3721 77.8055V39.4721ZM36.3721 30.4721C31.4016 30.4721 27.3721 34.5015 27.3721 39.4721V77.8055C27.3721 78.6204 27.5655 79.1241 27.7938 79.4315C28.0172 79.7324 28.3362 79.9297 28.7569 80.0242C29.6491 80.2244 30.9168 79.9286 32.0015 79.1982C33.3059 78.3199 35.2216 77.3195 37.0385 76.5394C37.9505 76.1478 38.8556 75.8039 39.6632 75.556C40.4472 75.3155 41.2224 75.1388 41.842 75.1388H75.7763C80.7469 75.1388 84.7763 71.1093 84.7763 66.1388V39.4721C84.7763 34.5015 80.7469 30.4721 75.7763 30.4721H36.3721Z" clip-rule="evenodd" fill-rule="evenodd" opacity="0.5"></path>
<path fill="#28336B" d="M35.1367 44.0797C35.1367 43.5419 35.5727 43.1059 36.1106 43.1059H58.5089C59.0467 43.1059 59.4827 43.5419 59.4827 44.0797C59.4827 44.6175 59.0467 45.0535 58.5089 45.0535H36.1106C35.5727 45.0535 35.1367 44.6175 35.1367 44.0797Z" opacity="0.3"></path>
<path fill="#28336B" d="M71.2258 49.0018C71.7997 49.5757 72.7302 49.5757 73.3041 49.0018C73.878 48.4279 73.878 47.4975 73.3041 46.9236L70.8797 44.4992L73.3042 42.0747C73.8781 41.5008 73.8781 40.5703 73.3042 39.9965C72.7303 39.4226 71.7998 39.4226 71.2259 39.9965L68.8014 42.4209L66.3766 39.9961C65.8027 39.4222 64.8722 39.4222 64.2983 39.9961C63.7244 40.5699 63.7244 41.5004 64.2983 42.0743L66.7232 44.4992L64.2984 46.924C63.7245 47.4978 63.7245 48.4283 64.2984 49.0022C64.8723 49.5761 65.8028 49.5761 66.3767 49.0022L68.8014 46.5774L71.2258 49.0018Z" clip-rule="evenodd" fill-rule="evenodd" opacity="0.3"></path>
<path fill="#28336B" d="M70.9133 48.824C71.4872 49.3979 72.4177 49.3979 72.9916 48.824C73.5655 48.2501 73.5655 47.3196 72.9916 46.7457L70.5672 44.3214L72.9917 41.8969C73.5656 41.323 73.5656 40.3925 72.9917 39.8186C72.4178 39.2447 71.4873 39.2447 70.9134 39.8186L68.4889 42.2431L66.0641 39.8182C65.4902 39.2443 64.5597 39.2443 63.9858 39.8182C63.4119 40.3921 63.4119 41.3226 63.9858 41.8965L66.4107 44.3214L63.9859 46.7461C63.412 47.32 63.412 48.2505 63.9859 48.8244C64.5598 49.3983 65.4903 49.3983 66.0642 48.8244L68.4889 46.3996L70.9133 48.824Z" clip-rule="evenodd" fill-rule="evenodd" opacity="0.3"></path>
<path fill="#8987B3" d="M38 21C38.5523 21 39 20.5523 39 20C39 19.4477 38.5523 19 38 19L34.0001 19L34.0001 15C34.0001 14.4477 33.5524 14 33.0001 14C32.4478 14 32.0001 14.4477 32.0001 15L32.0001 19L28 19C27.4477 19 27 19.4477 27 20C27 20.5523 27.4477 21 28 21L32.0001 21L32.0001 25C32.0001 25.5523 32.4478 26 33.0001 26C33.5524 26 34.0001 25.5523 34.0001 25L34.0001 21L38 21Z" clip-rule="evenodd" fill-rule="evenodd"></path>
<path fill="#8987B3" d="M88.3333 18.667C88.7015 18.667 89 18.3685 89 18.0003C89 17.6321 88.7015 17.3336 88.3333 17.3336L85.6666 17.3336L85.6666 14.6667C85.6666 14.2985 85.3682 14 85 14C84.6318 14 84.3333 14.2985 84.3333 14.6667L84.3333 17.3336L81.6667 17.3336C81.2985 17.3336 81 17.6321 81 18.0003C81 18.3685 81.2985 18.667 81.6667 18.667L84.3333 18.667L84.3333 21.3333C84.3333 21.7015 84.6318 22 85 22C85.3682 22 85.6666 21.7015 85.6666 21.3333L85.6666 18.667L88.3333 18.667Z" clip-rule="evenodd" fill-rule="evenodd"></path>
<path fill="#8987B3" d="M40.3305 83.6828C40.6891 83.6828 40.9797 83.3922 40.9797 83.0336C40.9797 82.6751 40.6891 82.3844 40.3305 82.3844L37.7336 82.3844L37.7336 79.7872C37.7336 79.4286 37.4429 79.1379 37.0844 79.1379C36.7258 79.1379 36.4351 79.4286 36.4351 79.7872L36.4351 82.3844L33.8383 82.3844C33.4797 82.3844 33.189 82.6751 33.189 83.0336C33.189 83.3922 33.4797 83.6828 33.8383 83.6828L36.4351 83.6828L36.4351 86.2794C36.4351 86.638 36.7258 86.9286 37.0844 86.9286C37.4429 86.9286 37.7336 86.638 37.7336 86.2794L37.7336 83.6828L40.3305 83.6828Z" clip-rule="evenodd" fill-rule="evenodd"></path>
<path fill="#28336B" d="M35.1367 54.305C35.1367 53.4983 35.7907 52.8443 36.5975 52.8443H75.5511C76.3578 52.8443 77.0118 53.4983 77.0118 54.305C77.0118 55.1118 76.3578 55.7658 75.5511 55.7658H36.5975C35.7907 55.7658 35.1367 55.1118 35.1367 54.305Z" opacity="0.3"></path>
<path fill="#28336B" d="M35.1367 62.0957C35.1367 61.289 35.7907 60.635 36.5975 60.635H75.5511C76.3578 60.635 77.0118 61.289 77.0118 62.0957C77.0118 62.9025 76.3578 63.5565 75.5511 63.5565H36.5975C35.7907 63.5565 35.1367 62.9025 35.1367 62.0957Z" opacity="0.3"></path>
<path fill="url(#paint2_linear_8:2156)" d="M39.0631 42.156H38.4759C38.5092 42.0304 38.5342 41.9047 38.5342 41.7748C38.5342 40.2792 36.1934 39.0643 33.3071 39.0643C31.941 39.0643 30.704 39.3366 29.7752 39.7807C29.2337 38.9177 28.155 38.3269 26.9138 38.3269C26.6931 38.3269 26.4765 38.3479 26.2682 38.3814C25.681 37.7027 24.7314 37.2628 23.6526 37.2628C22.1157 37.2628 20.8371 38.1594 20.5039 39.3617C19.3168 39.5544 18.3631 40.2918 18.0257 41.2511C16.6138 41.8502 15.66 42.9981 15.66 44.3136C15.66 45.8888 17.0178 47.221 18.8879 47.6567C19.2794 47.8578 19.725 47.9751 20.1957 47.9751H39.059C40.6583 47.9751 41.9536 46.6722 41.9536 45.0635C41.9536 43.4589 40.6583 42.156 39.0631 42.156Z"></path>
<path fill="#254580" d="M19.6481 38.2074C20.0633 36.6516 21.611 35.589 23.3566 35.589C24.4425 35.589 25.4371 35.9938 26.1415 36.6686C26.2573 36.6587 26.376 36.6531 26.497 36.6531C27.6842 36.6531 28.7717 37.144 29.4811 37.9428C30.3944 37.5897 31.4881 37.3904 32.6535 37.3904C34.136 37.3904 35.513 37.7129 36.5445 38.2686C37.4519 38.7574 38.2259 39.5109 38.3648 40.4863C40.235 40.5778 41.6798 42.1844 41.6798 44.0896C41.6798 46.0559 40.1475 47.7012 38.1923 47.7012H20.0277C19.4849 47.7012 18.9721 47.5686 18.5196 47.3422C16.553 46.8349 14.96 45.3109 14.96 43.3397C14.96 41.6716 16.1191 40.3138 17.6558 39.6367C18.0096 39.4808 18.4228 39.6412 18.5786 39.995C18.7345 40.3488 18.5741 40.762 18.2203 40.9179C17.0377 41.4389 16.36 42.3769 16.36 43.3397C16.36 44.4909 17.3363 45.6162 18.9329 46.0025L19.0193 46.0234L19.0977 46.0652C19.3798 46.2157 19.6965 46.3012 20.0277 46.3012H38.1923C39.3174 46.3012 40.2798 45.3408 40.2798 44.0896C40.2798 42.8426 39.3174 41.8822 38.1963 41.8822H36.7296L36.9526 41.009C36.9786 40.9071 36.987 40.8462 36.987 40.8009C36.987 40.4342 36.6997 39.9423 35.8806 39.5011C35.0902 39.0754 33.9504 38.7904 32.6535 38.7904C31.4277 38.7904 30.3462 39.0453 29.5637 39.4338L28.9865 39.7204L28.6532 39.1688C28.2692 38.5331 27.4683 38.0531 26.497 38.0531C26.33 38.0531 26.1606 38.0696 25.9907 38.098L25.5946 38.1642L25.3376 37.8557C24.9128 37.3459 24.2001 36.989 23.3566 36.989C22.1423 36.989 21.2273 37.7194 21.0008 38.5684C20.9011 38.9419 20.5175 39.1639 20.144 39.0642C19.7704 38.9645 19.5484 38.5809 19.6481 38.2074Z" clip-rule="evenodd" fill-rule="evenodd" opacity="0.8"></path>
<path fill="#8987B3" d="M16.1468 70.3211C18.0004 70.3211 19.5029 68.8185 19.5029 66.9649C19.5029 65.1114 18.0004 63.6088 16.1468 63.6088C14.2933 63.6088 12.7907 65.1114 12.7907 66.9649C12.7907 68.8185 14.2933 70.3211 16.1468 70.3211ZM16.1468 72.3211C19.1049 72.3211 21.5029 69.923 21.5029 66.9649C21.5029 64.0068 19.1049 61.6088 16.1468 61.6088C13.1887 61.6088 10.7907 64.0068 10.7907 66.9649C10.7907 69.923 13.1887 72.3211 16.1468 72.3211Z" clip-rule="evenodd" fill-rule="evenodd"></path>
<path fill="#8987B3" d="M93.0802 33.3413C93.8725 33.3413 94.5148 32.699 94.5148 31.9067C94.5148 31.1144 93.8725 30.4721 93.0802 30.4721C92.2879 30.4721 91.6456 31.1144 91.6456 31.9067C91.6456 32.699 92.2879 33.3413 93.0802 33.3413ZM93.0802 34.3413C94.4248 34.3413 95.5148 33.2513 95.5148 31.9067C95.5148 30.5621 94.4248 29.4721 93.0802 29.4721C91.7356 29.4721 90.6456 30.5621 90.6456 31.9067C90.6456 33.2513 91.7356 34.3413 93.0802 34.3413Z" clip-rule="evenodd" fill-rule="evenodd"></path>
<path fill="#D0F2F6" d="M94.1482 52.6162C93.3984 52.6162 92.7712 52.8495 92.3077 53.3298C91.8168 53.7826 91.5578 54.3864 91.5578 55.1549C91.5578 55.8684 91.8032 56.4722 92.3077 56.9799C92.7985 57.4739 93.412 57.7347 94.1482 57.7347C94.8572 57.7347 95.4707 57.5014 95.9888 57.0211C96.5069 56.4996 96.7659 55.8821 96.7659 55.1686C96.7659 54.4139 96.5205 53.7964 96.016 53.3435C95.5525 52.8495 94.9253 52.6162 94.1482 52.6162Z"></path>
<path fill="#625F9C" d="M91.958 52.9721C92.5316 52.3839 93.2942 52.1162 94.1482 52.1162C95.0247 52.1162 95.7901 52.3814 96.3659 52.9858C96.9821 53.5474 97.2659 54.304 97.2659 55.1686C97.2659 56.0186 96.9515 56.7615 96.3435 57.3735L96.3362 57.3808L96.3287 57.3878C95.7153 57.9564 94.9792 58.2347 94.1482 58.2347C93.2803 58.2347 92.5386 57.9218 91.953 57.3323C91.3543 56.7298 91.0578 55.9989 91.0578 55.1549C91.0578 54.2663 91.3616 53.5277 91.958 52.9721ZM94.1482 53.1162C93.5075 53.1162 93.0198 53.312 92.6674 53.677L92.6574 53.6875L92.6467 53.6973C92.2685 54.0462 92.0578 54.5118 92.0578 55.1549C92.0578 55.738 92.2521 56.2146 92.6624 56.6275C93.0583 57.026 93.5437 57.2347 94.1482 57.2347C94.7316 57.2347 95.2203 57.0485 95.6413 56.6614C96.0645 56.2322 96.2659 55.7424 96.2659 55.1686C96.2659 54.5311 96.0637 54.0582 95.682 53.7156L95.6661 53.7013L95.6514 53.6857C95.3018 53.3131 94.8185 53.1162 94.1482 53.1162Z" clip-rule="evenodd" fill-rule="evenodd"></path>
<path fill="#D0F2F6" d="M100.311 32.266C98.92 31.0035 97.0795 30.3723 94.789 30.3723C92.1577 30.3723 90.099 31.1408 88.6129 32.6502C87.1541 34.1185 86.3633 35.5593 86.3633 38.9213C86.3633 39.9642 87.2086 40.8013 88.2448 40.8013C89.281 40.8013 89.9354 40.4582 90.0717 38.6469C90.1808 37.1237 90.4262 36.0122 91.067 35.1614C91.7759 34.1322 92.9348 33.6245 94.5436 33.6245C95.8388 33.6245 96.8477 33.9813 97.5567 34.6948C98.2383 35.4358 98.5792 36.4101 98.5792 37.6177C98.5792 38.4959 98.252 39.3604 97.5839 40.2249L96.984 40.8973C94.7617 42.9008 93.4256 44.369 92.9757 45.3159C92.4985 46.1941 92.3077 47.3331 92.2668 48.7053C92.1986 50.4892 93.1802 51.0244 94.1618 51.0244C95.2253 51.0244 96.0433 50.6401 96.0569 48.719C96.0569 47.8408 96.2478 47.0586 96.6296 46.3588C96.9568 45.6727 97.4612 45.0552 98.1156 44.5063C99.7926 43.038 100.788 42.1049 101.088 41.7206C101.988 40.5542 102.438 39.0997 102.438 37.3707C102.438 35.2026 101.729 33.501 100.311 32.266Z"></path>
<path fill="#625F9C" d="M88.2574 32.2986C89.8578 30.6736 92.0563 29.8723 94.789 29.8723C97.1731 29.8723 99.1416 30.5313 100.643 31.8923C102.184 33.237 102.938 35.0844 102.938 37.3707C102.938 39.1897 102.463 40.7572 101.484 42.0261L101.482 42.0283C101.305 42.2555 100.953 42.6099 100.46 43.0717C99.9582 43.5421 99.2855 44.1466 98.445 44.8824L98.437 44.8894C97.8269 45.4012 97.3718 45.9639 97.0809 46.574L97.075 46.5863L97.0685 46.5982C96.7305 47.2179 96.5569 47.9165 96.5569 48.719L96.5569 48.7226C96.5497 49.7373 96.3318 50.4746 95.8551 50.9472C95.3748 51.4233 94.7386 51.5244 94.1618 51.5244C93.5874 51.5244 92.9512 51.3676 92.4685 50.8887C91.9804 50.4044 91.7299 49.6712 91.767 48.6883C91.8087 47.2971 92.0015 46.0685 92.53 45.0889C92.7887 44.5501 93.2733 43.9067 93.945 43.1667C94.6243 42.4185 95.5205 41.5444 96.629 40.5442L97.1988 39.9055C97.8077 39.113 98.0792 38.3576 98.0792 37.6177C98.0792 36.5133 97.7715 35.6707 97.1952 35.0405C96.6057 34.4512 95.742 34.1245 94.5436 34.1245C93.0445 34.1245 92.0671 34.5909 91.4787 35.445L91.4727 35.4538L91.4664 35.4622C90.9168 36.1919 90.6781 37.1792 90.5704 38.6826L90.5703 38.6844C90.4995 39.6253 90.289 40.3143 89.8504 40.7557C89.3968 41.2123 88.8036 41.3013 88.2448 41.3013C86.9342 41.3013 85.8633 40.242 85.8633 38.9213C85.8633 37.2037 86.0649 35.9348 86.4759 34.8922C86.8893 33.8437 87.5002 33.0609 88.2574 32.2986ZM94.789 30.8723C92.2596 30.8723 90.341 31.6077 88.9692 33.001L88.9676 33.0026C88.2664 33.7084 87.7528 34.38 87.4062 35.259C87.0572 36.1444 86.8633 37.2769 86.8633 38.9213C86.8633 39.6864 87.4831 40.3013 88.2448 40.3013C88.7222 40.3013 88.9743 40.2187 89.141 40.0509C89.3227 39.868 89.5075 39.48 89.5731 38.6102C89.6833 37.0721 89.9343 35.8394 90.6612 34.869C91.4913 33.6709 92.8293 33.1245 94.5436 33.1245C95.931 33.1245 97.0831 33.5088 97.9114 34.3424L97.9181 34.3492L97.9246 34.3563C98.7076 35.2074 99.0792 36.3111 99.0792 37.6177C99.0792 38.6299 98.6994 39.5991 97.9796 40.5306L97.9688 40.5446L97.339 41.2505L97.3188 41.2687C96.2144 42.2643 95.3381 43.12 94.6854 43.8389C94.0262 44.565 93.62 45.125 93.4273 45.5305L93.4215 45.5427L93.4151 45.5546C92.9942 46.3291 92.8067 47.3734 92.7665 48.7202L92.7664 48.7244C92.7358 49.5244 92.9421 49.9499 93.1728 50.1788C93.4093 50.4135 93.7547 50.5244 94.1618 50.5244C94.6485 50.5244 94.953 50.4333 95.1511 50.237C95.3525 50.0373 95.5503 49.6224 95.5569 48.7171C95.5572 47.7688 95.7633 46.9076 96.1841 46.1313C96.5469 45.3757 97.0972 44.7087 97.7902 44.1266C98.6249 43.3958 99.2869 42.8008 99.7762 42.3421C100.274 41.8753 100.57 41.5713 100.693 41.414C101.513 40.3502 101.938 39.009 101.938 37.3707C101.938 35.3226 101.274 33.7681 99.9823 32.643L99.9745 32.6363C98.6951 31.4748 96.9838 30.8723 94.789 30.8723Z" clip-rule="evenodd" fill-rule="evenodd"></path>
<path fill="#FBD4FA" d="M71.9422 57.5464C73.8886 54.1061 78.3581 50.3049 82.4606 50.0008C82.6913 49.9837 82.8351 50.2326 82.719 50.4326C80.2244 54.7276 80.2025 54.7905 79.5361 56.7571C82.2921 55.4014 87.8041 54.0459 87.8041 55.4014C87.8041 56.0188 86.5176 56.9459 85.0515 57.8366C94.3045 60.765 101 69.3019 101 79.3769C101 91.8715 90.7025 102 78 102C65.2975 102 55 91.8715 55 79.3769C55 68.9446 62.1787 60.1616 71.9422 57.5464Z" clip-rule="evenodd" fill-rule="evenodd"></path>
<path fill="white" d="M74.2573 75.4942C74.2573 79.1614 71.3988 82.1343 67.8727 82.1343C64.3465 82.1343 61.488 79.1614 61.488 75.4942C61.488 71.827 64.3465 68.8542 67.8727 68.8542C71.3988 68.8542 74.2573 71.827 74.2573 75.4942Z"></path>
<path fill="white" d="M92.5977 75.4942C92.5977 79.1614 89.7392 82.1343 86.213 82.1343C82.6869 82.1343 79.8284 79.1614 79.8284 75.4942C79.8284 71.827 82.6869 68.8542 86.213 68.8542C89.7392 68.8542 92.5977 71.827 92.5977 75.4942Z"></path>
<path fill="black" d="M72.4695 75.4916C72.4695 78.1715 70.4114 80.3439 67.8725 80.3439C65.3337 80.3439 63.2756 78.1715 63.2756 75.4916C63.2756 72.8117 65.3337 70.6393 67.8725 70.6393C70.4114 70.6393 72.4695 72.8117 72.4695 75.4916Z"></path>
<path fill="black" d="M90.8098 75.4916C90.8098 78.1715 88.7517 80.3439 86.2129 80.3439C83.674 80.3439 81.6159 78.1715 81.6159 75.4916C81.6159 72.8117 83.674 70.6393 86.2129 70.6393C88.7517 70.6393 90.8098 72.8117 90.8098 75.4916Z"></path>
<path fill="white" d="M67.3618 73.9546C67.3618 75.083 66.447 75.9977 65.3187 75.9977C64.1903 75.9977 63.2756 75.083 63.2756 73.9546C63.2756 72.8262 64.1903 71.9115 65.3187 71.9115C66.447 71.9115 67.3618 72.8262 67.3618 73.9546Z"></path>
<path fill="white" d="M85.7021 73.9546C85.7021 75.083 84.7874 75.9977 83.659 75.9977C82.5306 75.9977 81.6159 75.083 81.6159 73.9546C81.6159 72.8262 82.5306 71.9115 83.659 71.9115C84.7874 71.9115 85.7021 72.8262 85.7021 73.9546Z"></path>
<path fill="white" d="M71.4481 77.5289C71.4481 78.0931 70.9907 78.5504 70.4265 78.5504C69.8623 78.5504 69.405 78.0931 69.405 77.5289C69.405 76.9647 69.8623 76.5074 70.4265 76.5074C70.9907 76.5074 71.4481 76.9647 71.4481 77.5289Z"></path>
<path fill="white" d="M89.7884 77.5289C89.7884 78.0931 89.331 78.5504 88.7668 78.5504C88.2027 78.5504 87.7453 78.0931 87.7453 77.5289C87.7453 76.9647 88.2027 76.5074 88.7668 76.5074C89.331 76.5074 89.7884 76.9647 89.7884 77.5289Z"></path>
<path fill="#2F3076" d="M69.2784 66.1727C69.2784 67.1943 68.2568 67.322 66.8522 67.4495C65.4476 67.5771 64.1706 67.0666 64.1707 66.6834C64.1707 66.3002 65.1922 65.5342 66.5968 65.2789C68.0015 65.0236 69.2784 65.151 69.2784 66.1727Z"></path>
<path fill="#2F3076" d="M85.4963 66.0247C85.4963 67.0464 86.5179 67.174 87.9225 67.3016C89.3271 67.4291 90.6041 66.9187 90.6041 66.5354C90.6041 66.1522 89.5825 65.3863 88.1779 65.1309C86.7733 64.8756 85.4963 65.0031 85.4963 66.0247Z"></path>
<path fill="#FFA2FE" d="M62.1023 82.8869C61.6125 83.1318 61.5 83.3776 61.5 83.5004C61.5 83.6232 61.6125 83.8689 62.1023 84.1138C62.5621 84.3437 63.2324 84.5004 64 84.5004C64.7676 84.5004 65.4379 84.3437 65.8977 84.1138C66.3875 83.8689 66.5 83.6232 66.5 83.5004C66.5 83.3776 66.3875 83.1318 65.8977 82.8869C65.4379 82.657 64.7676 82.5004 64 82.5004C63.2324 82.5004 62.5621 82.657 62.1023 82.8869ZM61.6551 81.9925C62.281 81.6795 63.1108 81.5004 64 81.5004C64.8892 81.5004 65.719 81.6795 66.3449 81.9925C66.941 82.2905 67.5 82.7947 67.5 83.5004C67.5 84.206 66.941 84.7102 66.3449 85.0082C65.719 85.3212 64.8892 85.5004 64 85.5004C63.1108 85.5004 62.281 85.3212 61.6551 85.0082C61.059 84.7102 60.5 84.206 60.5 83.5004C60.5 82.7947 61.059 82.2905 61.6551 81.9925Z" clip-rule="evenodd" fill-rule="evenodd"></path>
<path fill="#FFA2FE" d="M90.1023 82.8869C89.6125 83.1318 89.5 83.3776 89.5 83.5004C89.5 83.6232 89.6125 83.8689 90.1023 84.1138C90.5621 84.3437 91.2324 84.5004 92 84.5004C92.7676 84.5004 93.4379 84.3437 93.8977 84.1138C94.3875 83.8689 94.5 83.6232 94.5 83.5004C94.5 83.3776 94.3875 83.1318 93.8977 82.8869C93.4379 82.657 92.7676 82.5004 92 82.5004C91.2324 82.5004 90.5621 82.657 90.1023 82.8869ZM89.6551 81.9925C90.281 81.6795 91.1108 81.5004 92 81.5004C92.8892 81.5004 93.719 81.6795 94.3449 81.9925C94.941 82.2905 95.5 82.7947 95.5 83.5004C95.5 84.206 94.941 84.7102 94.3449 85.0082C93.719 85.3212 92.8892 85.5004 92 85.5004C91.1108 85.5004 90.281 85.3212 89.6551 85.0082C89.059 84.7102 88.5 84.206 88.5 83.5004C88.5 82.7947 89.059 82.2905 89.6551 81.9925Z" clip-rule="evenodd" fill-rule="evenodd"></path>
<path fill="#FFE9FE" d="M90.9985 98.0436C87.3006 100.54 82.8237 102 78 102C73.1762 102 68.6993 100.54 65.0015 98.0435C68.1199 94.3478 72.7858 92.0004 78 92.0004C83.2141 92.0004 87.88 94.3478 90.9985 98.0436Z" clip-rule="evenodd" fill-rule="evenodd"></path>
<path fill="#2F3076" d="M82.4237 49.5022C83.0916 49.4527 83.4509 50.1679 83.1513 50.6837C81.9001 52.838 81.2808 53.911 80.8889 54.6922C80.6765 55.1156 80.5318 55.4511 80.3885 55.8331C81.6859 55.3104 83.2505 54.8388 84.6071 54.5719C85.4821 54.3998 86.3099 54.3046 86.9375 54.3521C87.2462 54.3755 87.56 54.4366 87.8116 54.5817C88.0914 54.743 88.3041 55.0199 88.3041 55.4014C88.3041 55.72 88.1444 56.0024 87.9773 56.2208C87.8019 56.4503 87.5638 56.6791 87.2975 56.9008C86.9838 57.1619 86.608 57.4318 86.2017 57.701C95.1317 60.9739 101.5 69.4399 101.5 79.3769C101.5 92.1554 90.9709 102.5 78 102.5C65.0291 102.5 54.5 92.1554 54.5 79.3769C54.5 68.7794 61.7428 59.8551 71.6121 57.1182C72.63 55.3882 74.2349 53.6041 76.0911 52.1989C78.0083 50.7474 80.242 49.6639 82.4237 49.5022ZM82.0764 50.5435C80.2793 50.785 78.3912 51.7117 76.6947 52.9962C74.8691 54.3783 73.3132 56.1386 72.3774 57.7926C72.3113 57.9094 72.2012 57.9947 72.0716 58.0294C62.5162 60.5888 55.5 69.1816 55.5 79.3769C55.5 91.5876 65.5658 101.5 78 101.5C90.4342 101.5 100.5 91.5876 100.5 79.3769C100.5 69.5307 93.9563 61.1793 84.9006 58.3133C84.7136 58.2541 84.5785 58.091 84.5551 57.8963C84.5317 57.7015 84.6243 57.5111 84.7919 57.4093C85.5195 56.9672 86.1821 56.5282 86.6577 56.1322C86.8963 55.9336 87.0715 55.7592 87.183 55.6133C87.2475 55.529 87.2777 55.4712 87.2917 55.4373C87.223 55.4044 87.0883 55.3664 86.8621 55.3493C86.3701 55.3121 85.6476 55.3864 84.8001 55.5531C83.1147 55.8847 81.0903 56.5498 79.7568 57.2058C79.5755 57.295 79.3583 57.2663 79.2064 57.133C79.0545 56.9997 78.9977 56.7881 79.0626 56.5967L79.0652 56.5889C79.3969 55.61 79.5786 55.074 79.9951 54.2438C80.3806 53.4755 80.9699 52.4495 82.0764 50.5435ZM87.3041 55.4014C87.3041 55.4021 87.3041 55.4007 87.3041 55.4014C87.3041 55.4013 87.3041 55.4012 87.3041 55.4014Z" clip-rule="evenodd" fill-rule="evenodd"></path>
<path fill="#FBD4FA" d="M60.3739 84.0646C61.8538 80.6026 57.9074 76.1514 54.9476 77.1405C51.9879 78.1297 52.8872 85.7662 54.4543 88.5158C56.4275 91.9779 59.8806 91.9779 59.3873 87.5267C60.3739 87.5267 61.8538 86.0429 60.3739 84.0646Z"></path>
<path fill="#28336B" d="M58.9398 79.2513C57.8261 77.8997 56.299 77.2161 55.1061 77.6147C54.576 77.7919 54.1573 78.2845 53.8746 79.1105C53.5934 79.9319 53.4786 81.0004 53.5033 82.1573C53.5529 84.4823 54.1596 86.989 54.8887 88.2683C55.3523 89.0817 55.8915 89.671 56.4145 90.0388C56.9422 90.4098 57.4219 90.5353 57.7872 90.4922C58.1284 90.4519 58.4375 90.2583 58.6547 89.8228C58.8815 89.3679 59.0077 88.6404 58.8904 87.5818L58.8288 87.0267H59.3873C59.6643 87.0267 60.1218 86.7883 60.3581 86.3144C60.569 85.8916 60.619 85.227 59.9735 84.3641L59.8008 84.1332L59.9142 83.8681C60.5558 82.367 60.039 80.5854 58.9398 79.2513ZM60.9369 83.9968C61.6068 82.1069 60.8999 80.0576 59.7115 78.6154C58.482 77.1232 56.5561 76.0758 54.7892 76.6663C53.8394 76.9837 53.2605 77.8166 52.9285 78.7866C52.5948 79.7612 52.4775 80.9591 52.5035 82.1787C52.5553 84.6067 53.1819 87.2931 54.0199 88.7634C54.5429 89.681 55.1753 90.3899 55.8393 90.8568C56.4986 91.3204 57.2213 91.5659 57.9043 91.4853C58.6114 91.4019 59.1964 90.9773 59.5496 90.2691C59.8462 89.6742 59.9766 88.8908 59.9233 87.9366C60.4592 87.7595 60.9675 87.3331 61.253 86.7607C61.6306 86.0035 61.6134 85.0275 60.9369 83.9968Z" clip-rule="evenodd" fill-rule="evenodd"></path>
<path fill="#FBD4FA" d="M95.6261 84.0646C94.1462 80.6026 98.0926 76.1514 101.052 77.1405C104.012 78.1297 103.113 85.7662 101.546 88.5158C99.5725 91.9779 96.1194 91.9779 96.6127 87.5267C95.6261 87.5267 94.1462 86.0429 95.6261 84.0646Z"></path>
<path fill="#28336B" d="M97.0602 79.2513C98.1739 77.8997 99.701 77.2161 100.894 77.6147C101.424 77.7919 101.843 78.2845 102.125 79.1105C102.407 79.9319 102.521 81.0004 102.497 82.1573C102.447 84.4823 101.84 86.989 101.111 88.2683C100.648 89.0817 100.109 89.671 99.5855 90.0388C99.0578 90.4098 98.5781 90.5353 98.2128 90.4922C97.8716 90.4519 97.5625 90.2583 97.3453 89.8228C97.1185 89.3679 96.9923 88.6404 97.1096 87.5818L97.1712 87.0267H96.6127C96.3357 87.0267 95.8782 86.7883 95.6419 86.3144C95.431 85.8916 95.381 85.227 96.0265 84.3641L96.1992 84.1332L96.0858 83.8681C95.4442 82.367 95.961 80.5854 97.0602 79.2513ZM95.0631 83.9968C94.3932 82.1069 95.1001 80.0576 96.2885 78.6154C97.518 77.1232 99.4439 76.0758 101.211 76.6663C102.161 76.9837 102.739 77.8166 103.072 78.7866C103.405 79.7612 103.523 80.9591 103.497 82.1787C103.445 84.6067 102.818 87.2931 101.98 88.7634C101.457 89.681 100.825 90.3899 100.161 90.8568C99.5014 91.3204 98.7787 91.5659 98.0957 91.4853C97.3886 91.4019 96.8036 90.9773 96.4504 90.2691C96.1538 89.6742 96.0234 88.8908 96.0767 87.9366C95.5408 87.7595 95.0325 87.3331 94.747 86.7607C94.3694 86.0035 94.3866 85.0275 95.0631 83.9968Z" clip-rule="evenodd" fill-rule="evenodd"></path>
<path fill="#FEE46B" d="M80.9043 84.288C80.4259 86.0414 78.3924 89.0004 76.957 89.0004C75.5217 89.0004 73.1294 85.7127 73.0098 83.9592C72.8902 82.2057 73.847 81.0003 76.957 81.0004C80.067 81.0004 81.3828 82.5347 80.9043 84.288Z"></path>
<path fill="#2F3076" d="M74.096 82.2034C73.6427 82.5882 73.4556 83.1481 73.5086 83.9252C73.5325 84.2746 73.6759 84.7439 73.9268 85.2721C74.1742 85.793 74.5107 86.3389 74.8879 86.8345C75.2663 87.3316 75.6746 87.7635 76.0601 88.0658C76.4624 88.3812 76.7695 88.5004 76.9571 88.5004C77.1544 88.5004 77.4429 88.392 77.809 88.1129C78.1641 87.8423 78.5381 87.4524 78.8952 86.9943C79.6142 86.0721 80.2047 84.9527 80.422 84.1564C80.6159 83.4455 80.4474 82.8215 79.9386 82.3554C79.4068 81.8681 78.4421 81.5004 76.957 81.5004C75.4483 81.5003 74.5756 81.7961 74.096 82.2034ZM73.4487 81.4411C74.1951 80.8073 75.3558 80.5003 76.9571 80.5004C78.582 80.5004 79.8302 80.8998 80.6141 81.618C81.4211 82.3574 81.6712 83.3772 81.3867 84.4197C81.1255 85.3767 80.4601 86.6135 79.6839 87.6091C79.2934 88.1099 78.86 88.5693 78.4151 88.9083C77.9813 89.2389 77.4774 89.5004 76.9571 89.5004C76.427 89.5004 75.8968 89.2085 75.443 88.8527C74.9726 88.4838 74.5062 87.9842 74.0922 87.4402C73.677 86.8947 73.3032 86.2899 73.0235 85.7012C72.7474 85.1198 72.5469 84.5206 72.511 83.9932C72.4444 83.0169 72.6759 82.0973 73.4487 81.4411Z" clip-rule="evenodd" fill-rule="evenodd"></path>
<defs>
<linearGradient gradientUnits="userSpaceOnUse" y2="36.3912" x2="100.932" y1="44.3014" x1="85.9061" id="paint0_linear_8:2156">
<stop stop-color="#EED3FF"></stop>
<stop stop-opacity="0" stop-color="#EED3FF" offset="1"></stop>
</linearGradient>
<linearGradient gradientUnits="userSpaceOnUse" y2="31.4124" x2="27.9802" y1="75.7295" x1="91.6518" id="paint1_linear_8:2156">
<stop stop-color="#DED9FF"></stop>
<stop stop-opacity="0.4" stop-color="#E6E2FF" offset="1"></stop>
</linearGradient>
<linearGradient gradientUnits="userSpaceOnUse" y2="32.1029" x2="15.5084" y1="44.8108" x1="41.7347" id="paint2_linear_8:2156">
<stop stop-color="#D8BAFD"></stop>
<stop stop-opacity="0.3" stop-color="#EED3FF" offset="1"></stop>
</linearGradient>
</defs>
</svg>
