<svg id="f9722fca-055f-429a-898f-bf04960018f0" data-name="图层 1" xmlns="http://www.w3.org/2000/svg" xmlns:xlink="http://www.w3.org/1999/xlink" viewBox="0 0 160.11 121.37"><defs><linearGradient id="fbf1db38-e623-4b17-8d06-43ab2532c9f4" x1="51.39" y1="118.45" x2="41.33" y2="0.43" gradientTransform="matrix(-0.98, -0.17, -0.17, 0.98, 201.29, 6.94)" gradientUnits="userSpaceOnUse"><stop offset="0" stop-color="#82f3e8" stop-opacity="0.21"/><stop offset="1" stop-color="#2ce5e1"/></linearGradient><linearGradient id="a91990c0-f4a7-41af-a41f-e1a3f383cc7c" x1="81.95" y1="16.74" x2="47.23" y2="134.67" gradientTransform="matrix(-1, 0, 0, 1, 175.87, -2.1)" gradientUnits="userSpaceOnUse"><stop offset="0" stop-color="#85f3e8" stop-opacity="0.21"/><stop offset="1" stop-color="#2ce5e1"/></linearGradient><linearGradient id="bbbaace8-56e7-4281-b14d-bdd9cd9e3e79" x1="73.83" y1="73.02" x2="152.98" y2="82.98" gradientTransform="matrix(-1, 0, 0, 1, 175.87, -2.1)" gradientUnits="userSpaceOnUse"><stop offset="0" stop-color="#85f3e8" stop-opacity="0.21"/><stop offset="0" stop-color="#82f3e8" stop-opacity="0.24"/><stop offset="1" stop-color="#2ce5e1"/></linearGradient><linearGradient id="ab1d0cc4-46ab-4f28-8665-6db237419b68" x1="142.12" y1="143.2" x2="132.06" y2="25.18" gradientTransform="matrix(-0.98, 0.17, 0.17, 0.98, 153.03, -49.57)" gradientUnits="userSpaceOnUse"><stop offset="0" stop-color="#82f3e8" stop-opacity="0.21"/><stop offset="1" stop-color="#2ce5e1" stop-opacity="0.97"/><stop offset="1" stop-color="#2ae7e1"/></linearGradient></defs><path d="M153.48,6.39A17.9,17.9,0,0,1,168,27.06l-15.11,85.69a17.84,17.84,0,0,1-35.14-6.2l15.11-85.69A17.81,17.81,0,0,1,153.48,6.39Z" transform="translate(-8.11 -6.12)" style="fill:url(#fbf1db38-e623-4b17-8d06-43ab2532c9f4)"/><path d="M88.49,23.68a17.64,17.64,0,0,1,14.65,7.77l46.89,68a17.86,17.86,0,0,1-29.43,20.26l-46.9-68a17.91,17.91,0,0,1,14.79-28Z" transform="translate(-8.11 -6.12)" style="fill:url(#a91990c0-f4a7-41af-a41f-e1a3f383cc7c)"/><path d="M88.49,23.68a17.47,17.47,0,0,1,10.06,3.18,17.82,17.82,0,0,1,4.59,24.84l-46.89,68A17.87,17.87,0,0,1,26.81,99.48l47-68.16A17.85,17.85,0,0,1,88.49,23.68Z" transform="translate(-8.11 -6.12)" style="fill:url(#bbbaace8-56e7-4281-b14d-bdd9cd9e3e79)"/><path d="M22.86,6.39A17.9,17.9,0,0,1,43.53,20.86l15.11,85.69a17.84,17.84,0,0,1-35.14,6.2L8.39,27.05A17.81,17.81,0,0,1,22.86,6.39Z" transform="translate(-8.11 -6.12)" style="fill:url(#ab1d0cc4-46ab-4f28-8665-6db237419b68)"/></svg>