<svg xmlns="http://www.w3.org/2000/svg" xmlns:xlink="http://www.w3.org/1999/xlink" width="331" height="209" viewBox="0 0 331 209" fill="none"><defs><path id="path_0"
        transform="translate(0 0) rotate(0 165.5 104.5)"
        d="M18,209L313,209C322.94,209 331,200.94 331,191L331,18C331,8.06 322.94,0 313,0L18,0C8.06,0 0,8.06 0,18L0,191C0,200.94 8.06,209 18,209Z" /><linearGradient id="linear_0" x1="-50.658303581437394%" y1="74.28631702925334%" x2="113.96189040003861%" y2="-9.24970271819892%" gradientUnits="objectBoundingBox"><stop offset="0" stop-color="#FFE29F" stop-opacity="1" /><stop offset="0.478728924779567" stop-color="#FFA99F" stop-opacity="1" /><stop offset="1" stop-color="#FF719A" stop-opacity="1" /></linearGradient><linearGradient id="linear_1" x1="-27.256583164179737%" y1="65.91519983180383%" x2="101.19513988405402%" y2="5.633077119962408%" gradientUnits="objectBoundingBox"><stop offset="0" stop-color="#FF829C" stop-opacity="1" /><stop offset="1" stop-color="#FFD0A0" stop-opacity="1" /></linearGradient><linearGradient id="linear_2" x1="-2.997986249776652%" y1="97.51265852406702%" x2="124.64600492585515%" y2="-1.1131620102819317%" gradientUnits="objectBoundingBox"><stop offset="0" stop-color="#FF829C" stop-opacity="1" /><stop offset="1" stop-color="#6F87D7" stop-opacity="1" /></linearGradient><linearGradient id="linear_3" x1="-46.08427465072894%" y1="144.15087211822492%" x2="82.07221657793231%" y2="-2.751832128178444%" gradientUnits="objectBoundingBox"><stop offset="0" stop-color="#FFC796" stop-opacity="1" /><stop offset="1" stop-color="#FF6B95" stop-opacity="1" /></linearGradient></defs><g opacity="1" transform="translate(0 0)  rotate(0 165.5 104.5)"><mask id="mask-0" fill="white"><use xlink:href="#path_0"></use></mask><g mask="url(#mask-0)"><path id="Rectangle" fill-rule="evenodd" fill="url(#linear_0)" transform="translate(0 0)  rotate(0 165.5 104.5)" opacity="1" d="M18,209L313,209C322.94,209 331,200.94 331,191L331,18C331,8.06 322.94,0 313,0L18,0C8.06,0 0,8.06 0,18L0,191C0,200.94 8.06,209 18,209Z " /></g><g mask="url(#mask-0)"><path id="Oval 2" fill-rule="evenodd" fill="url(#linear_1)" transform="translate(-97.92083333333358 -75.14453125)  rotate(0 195.1851653470363 142.61647194235434)" opacity="1" d="M314.13,183.15C404.38,187.8 451.97,-39.16 237.7,5.93C23.42,51.03 0,89.22 0,162.27C0,235.32 74.4,337.66 149.12,253.77C223.84,169.88 223.84,178.5 314.13,183.15Z " /></g><g mask="url(#mask-0)"><path id="Oval 2 Copy 2" fill-rule="evenodd" fill="url(#linear_2)" transform="translate(126.6534722222241 67.515625)  rotate(0 165.84716708507355 117.1462601401355)" opacity="1" d="M36.65,91.35C-44.15,87.2 7.96,268.78 199.71,228.44C391.47,188.09 317.76,175.44 317.76,110.05C317.76,44.68 251.19,-46.91 184.32,28.16C117.45,103.23 117.45,95.52 36.65,91.35Z " /></g><g mask="url(#mask-0)"><path id="Oval 2 Copy" fill-rule="evenodd" fill="url(#linear_3)" transform="translate(-81.60069444444525 -89.43359375)  rotate(0 138.07470788123535 97.27933325286655)" opacity="1" d="M218.38,123.6C281.12,126.81 324.12,-27.12 175.16,4.22C26.21,35.57 0,58.29 0,109.07C0,159.87 51.72,231 103.67,172.69C155.61,114.38 155.61,120.37 218.38,123.6Z " /></g></g></svg>