<svg xmlns="http://www.w3.org/2000/svg" xmlns:xlink="http://www.w3.org/1999/xlink" width="331" height="209" viewBox="0 0 331 209" fill="none"><defs><path id="path_0"
        transform="translate(0 0) rotate(0 165.5 104.5)"
        d="M18,209L313,209C322.94,209 331,200.94 331,191L331,18C331,8.06 322.94,0 313,0L18,0C8.06,0 0,8.06 0,18L0,191C0,200.94 8.06,209 18,209Z" /><linearGradient id="linear_0" x1="-5.436742727353661%" y1="-9.893386841326663%" x2="94.28766912811763%" y2="109.72329239288516%" gradientUnits="objectBoundingBox"><stop offset="0" stop-color="#9122FC" stop-opacity="1" /><stop offset="0.5301053249453102" stop-color="#FF71A5" stop-opacity="1" /><stop offset="1" stop-color="#FEAD6E" stop-opacity="1" /></linearGradient><linearGradient id="linear_1" x1="67.11033971585785%" y1="100%" x2="6.828217004016429%" y2="-28.451723048233763%" gradientUnits="objectBoundingBox"><stop offset="0" stop-color="#FF829C" stop-opacity="1" /><stop offset="1" stop-color="#FFD0A0" stop-opacity="1" /></linearGradient><linearGradient id="linear_2" x1="67.11033971585785%" y1="100%" x2="6.828217004016429%" y2="-28.451723048233763%" gradientUnits="objectBoundingBox"><stop offset="0" stop-color="#FF829C" stop-opacity="1" /><stop offset="1" stop-color="#FFD0A0" stop-opacity="1" /></linearGradient><linearGradient id="linear_3" x1="67.11033971585785%" y1="100%" x2="6.828217004016429%" y2="-28.451723048233763%" gradientUnits="objectBoundingBox"><stop offset="0" stop-color="#FF829C" stop-opacity="1" /><stop offset="1" stop-color="#FFD0A0" stop-opacity="1" /></linearGradient><linearGradient id="linear_4" x1="67.11033971585785%" y1="100%" x2="6.828217004016429%" y2="-28.451723048233763%" gradientUnits="objectBoundingBox"><stop offset="0" stop-color="#FF829C" stop-opacity="1" /><stop offset="1" stop-color="#FFD0A0" stop-opacity="1" /></linearGradient><linearGradient id="linear_5" x1="67.11033971585785%" y1="100%" x2="6.828217004016429%" y2="-28.451723048233763%" gradientUnits="objectBoundingBox"><stop offset="0" stop-color="#FF829C" stop-opacity="1" /><stop offset="1" stop-color="#FFD0A0" stop-opacity="1" /></linearGradient><linearGradient id="linear_6" x1="67.11033971585785%" y1="100%" x2="6.828217004016429%" y2="-28.451723048233763%" gradientUnits="objectBoundingBox"><stop offset="0" stop-color="#FF829C" stop-opacity="1" /><stop offset="1" stop-color="#FFD0A0" stop-opacity="1" /></linearGradient><linearGradient id="linear_7" x1="67.11033971585785%" y1="100%" x2="6.828217004016429%" y2="-28.451723048233763%" gradientUnits="objectBoundingBox"><stop offset="0" stop-color="#FF829C" stop-opacity="1" /><stop offset="1" stop-color="#FFD0A0" stop-opacity="1" /></linearGradient><linearGradient id="linear_8" x1="67.11033971585785%" y1="100%" x2="6.828217004016429%" y2="-28.451723048233763%" gradientUnits="objectBoundingBox"><stop offset="0" stop-color="#FF829C" stop-opacity="1" /><stop offset="1" stop-color="#FFD0A0" stop-opacity="1" /></linearGradient><linearGradient id="linear_9" x1="67.11033971585785%" y1="100%" x2="6.828217004016429%" y2="-28.451723048233763%" gradientUnits="objectBoundingBox"><stop offset="0" stop-color="#FF829C" stop-opacity="1" /><stop offset="1" stop-color="#FFD0A0" stop-opacity="1" /></linearGradient><linearGradient id="linear_10" x1="67.11033971585785%" y1="100%" x2="6.828217004016429%" y2="-28.451723048233763%" gradientUnits="objectBoundingBox"><stop offset="0" stop-color="#FF829C" stop-opacity="1" /><stop offset="1" stop-color="#FFD0A0" stop-opacity="1" /></linearGradient><linearGradient id="linear_11" x1="67.11033971585785%" y1="100%" x2="6.828217004016429%" y2="-28.451723048233763%" gradientUnits="objectBoundingBox"><stop offset="0" stop-color="#FF829C" stop-opacity="1" /><stop offset="1" stop-color="#FFD0A0" stop-opacity="1" /></linearGradient><linearGradient id="linear_12" x1="67.11033971585785%" y1="100%" x2="6.828217004016429%" y2="-28.451723048233763%" gradientUnits="objectBoundingBox"><stop offset="0" stop-color="#FF829C" stop-opacity="1" /><stop offset="1" stop-color="#FFD0A0" stop-opacity="1" /></linearGradient><linearGradient id="linear_13" x1="67.11033971585785%" y1="100%" x2="6.828217004016429%" y2="-28.451723048233763%" gradientUnits="objectBoundingBox"><stop offset="0" stop-color="#FF829C" stop-opacity="1" /><stop offset="1" stop-color="#FFD0A0" stop-opacity="1" /></linearGradient></defs><g opacity="1" transform="translate(0 0)  rotate(0 165.5 104.5)"><mask id="mask-0" fill="white"><use xlink:href="#path_0"></use></mask><g mask="url(#mask-0)"><path id="Rectangle" fill-rule="evenodd" fill="url(#linear_0)" transform="translate(0 0)  rotate(0 165.5 104.5)" opacity="1" d="M18,209L313,209C322.94,209 331,200.94 331,191L331,18C331,8.06 322.94,0 313,0L18,0C8.06,0 0,8.06 0,18L0,191C0,200.94 8.06,209 18,209Z " /></g><g mask="url(#mask-0)"><path id="Rectangle 2" fill-rule="evenodd" fill="url(#linear_1)" transform="translate(208.1347454665504 -23.98285789708954)  rotate(-37 95.5538899693281 6.407142586951245)" opacity="1" d="M6.29,12.81L184.83,12.59C188.3,12.59 191.11,9.77 191.11,6.3L191.11,6.29C191.11,4.62 190.45,3.02 189.27,1.84C188.08,0.66 186.48,0 184.81,0L6.28,0.23C2.81,0.23 0,3.04 0,6.51L0,6.53C0,10 2.82,12.81 6.29,12.81Z " /></g><g mask="url(#mask-0)"><path id="Rectangle 2 Copy" fill-rule="evenodd" fill="url(#linear_2)" transform="translate(182.1477469030205 46.08614801822734)  rotate(-37 95.55388996932805 6.40714258695125)" opacity="1" d="M6.29,12.81L184.83,12.59C188.3,12.59 191.11,9.77 191.11,6.3L191.11,6.29C191.11,4.62 190.45,3.02 189.27,1.84C188.08,0.66 186.48,0 184.81,0L6.28,0.23C2.81,0.23 0,3.04 0,6.51L0,6.53C0,10 2.82,12.81 6.29,12.81Z " /></g><g mask="url(#mask-0)"><path id="Rectangle 2 Copy 12" fill-rule="evenodd" fill="url(#linear_3)" transform="translate(129.6980675068131 129.7979206640028)  rotate(-37 38.554986832118786 6.33479191112307)" opacity="1" d="M6.29,12.67L70.83,12.59C74.3,12.59 77.11,9.78 77.11,6.31L77.11,6.29C77.11,4.62 76.45,3.02 75.27,1.84C74.09,0.66 72.49,0 70.82,0L6.28,0.08C2.81,0.08 0,2.89 0,6.36L0,6.38C0,8.05 0.66,9.65 1.84,10.83C3.02,12.01 4.62,12.67 6.29,12.67Z " /></g><g mask="url(#mask-0)"><path id="Rectangle 2 Copy 2" fill-rule="evenodd" fill="url(#linear_4)" transform="translate(249.9567746808017 52.30880426822443)  rotate(-37 95.5538899693281 6.40714258695123)" opacity="1" d="M6.29,12.81L184.83,12.59C188.3,12.59 191.11,9.77 191.11,6.3L191.11,6.29C191.11,4.62 190.45,3.02 189.27,1.84C188.08,0.66 186.48,0 184.81,0L6.28,0.23C2.81,0.23 0,3.04 0,6.51L0,6.53C0,10 2.82,12.81 6.29,12.81Z " /></g><g mask="url(#mask-0)"><path id="Rectangle 2 Copy 10" fill-rule="evenodd" fill="url(#linear_5)" transform="translate(125.2922943972956 160.643460972445)  rotate(-37 77.5711494292248 6.38431647346993)" opacity="1" d="M6.28,12.77L148.86,12.59C152.32,12.59 155.13,9.78 155.14,6.32L155.14,6.29C155.15,4.62 154.49,3.02 153.31,1.84C152.13,0.66 150.53,0 148.86,0L6.28,0.18C2.82,0.18 0.01,2.99 0,6.45L0,6.48C-0.01,8.15 0.65,9.75 1.83,10.93C3.01,12.11 4.61,12.77 6.28,12.77Z " /></g><g mask="url(#mask-0)"><path id="Rectangle 2 Copy 11" fill-rule="evenodd" fill="url(#linear_6)" transform="translate(200.0339582667332 166.8661172224458)  rotate(-37 77.5711494292247 6.384316473469965)" opacity="1" d="M6.28,12.77L148.86,12.59C152.32,12.59 155.13,9.78 155.14,6.32L155.14,6.29C155.15,4.62 154.49,3.02 153.31,1.84C152.13,0.66 150.53,0 148.86,0L6.28,0.18C2.82,0.18 0.01,2.99 0,6.45L0,6.48C-0.01,8.15 0.65,9.75 1.83,10.93C3.01,12.11 4.61,12.77 6.28,12.77Z " /></g><g mask="url(#mask-0)"><path id="Rectangle 2 Copy 3" fill-rule="evenodd" fill="url(#linear_7)" transform="translate(150.0576086365186 46.05274354762248)  rotate(-37 90.9009340721121 6.40123642937218)" opacity="1" d="M6.29,12.8L175.52,12.59C178.99,12.59 181.8,9.77 181.8,6.3L181.8,6.29C181.8,4.62 181.14,3.02 179.96,1.84C178.78,0.66 177.18,0 175.51,0L6.28,0.21C2.81,0.21 0,3.03 0,6.5L0,6.52C0,9.99 2.82,12.8 6.29,12.8Z " /></g><g mask="url(#mask-0)"><path id="Rectangle 2 Copy 4" fill-rule="evenodd" fill="url(#linear_8)" transform="translate(160.310941347464 -16.60135198177188)  rotate(-37 95.55388996932805 6.40714258695125)" opacity="1" d="M6.29,12.81L184.83,12.59C188.3,12.59 191.11,9.77 191.11,6.3L191.11,6.29C191.11,4.62 190.45,3.02 189.27,1.84C188.08,0.66 186.48,0 184.81,0L6.28,0.23C2.81,0.23 0,3.04 0,6.51L0,6.53C0,10 2.82,12.81 6.29,12.81Z " /></g><g mask="url(#mask-0)"><path id="Rectangle 2 Copy 5" fill-rule="evenodd" fill="url(#linear_9)" transform="translate(149.9671913474652 101.3986480182238)  rotate(-37 95.55388996932805 6.40714258695124)" opacity="1" d="M6.29,12.81L184.83,12.59C188.3,12.59 191.11,9.77 191.11,6.3L191.11,6.29C191.11,4.62 190.45,3.02 189.27,1.84C188.08,0.66 186.48,0 184.81,0L6.28,0.23C2.81,0.23 0,3.04 0,6.51L0,6.53C0,10 2.82,12.81 6.29,12.81Z " /></g><g mask="url(#mask-0)"><path id="Rectangle 2 Copy 6" fill-rule="evenodd" fill="url(#linear_10)" transform="translate(215.7074691252439 108.773648018226)  rotate(-37 95.55388996932805 6.40714258695126)" opacity="1" d="M6.29,12.81L184.83,12.59C188.3,12.59 191.11,9.77 191.11,6.3L191.11,6.29C191.11,4.62 190.45,3.02 189.27,1.84C188.08,0.66 186.48,0 184.81,0L6.28,0.23C2.81,0.23 0,3.04 0,6.51L0,6.53C0,10 2.82,12.81 6.29,12.81Z " /></g><g mask="url(#mask-0)"><path id="Rectangle 2 Copy 7" fill-rule="evenodd" fill="url(#linear_11)" transform="translate(108.5921913474688 -10.37869573177212)  rotate(-37 95.5538899693281 6.407142586951255)" opacity="1" d="M6.29,12.81L184.83,12.59C188.3,12.59 191.11,9.77 191.11,6.3L191.11,6.29C191.11,4.62 190.45,3.02 189.27,1.84C188.08,0.66 186.48,0 184.81,0L6.28,0.23C2.81,0.23 0,3.04 0,6.51L0,6.53C0,10 2.82,12.81 6.29,12.81Z " /></g><g mask="url(#mask-0)"><path id="Rectangle 2 Copy 8" fill-rule="evenodd" fill="url(#linear_12)" transform="translate(116.8263720434213 73.66613221122275)  rotate(-37 54.8165125481879 6.35543322719756)" opacity="1" d="M6.28,12.71L103.35,12.59C106.82,12.59 109.63,9.78 109.63,6.31L109.63,6.29C109.63,4.62 108.97,3.02 107.8,1.84C106.62,0.66 105.02,0 103.35,0L6.28,0.12C2.81,0.12 0,2.93 0,6.4L0,6.42C0,8.09 0.66,9.69 1.83,10.87C3.01,12.05 4.61,12.71 6.28,12.71Z " /></g><g mask="url(#mask-0)"><path id="Rectangle 2 Copy 9" fill-rule="evenodd" fill="url(#linear_13)" transform="translate(58.26839034674417 83.7771973550926)  rotate(-37 60.89727530644575 6.3631517493251)" opacity="1" d="M6.28,12.73L115.52,12.59C118.98,12.58 121.79,9.77 121.79,6.31L121.79,6.29C121.79,4.62 121.13,3.02 119.96,1.84C118.78,0.66 117.18,0 115.51,0L6.28,0.14C2.82,0.14 0.01,2.95 0,6.41L0,6.44C0,8.11 0.66,9.71 1.83,10.89C3.01,12.07 4.61,12.73 6.28,12.73Z " /></g></g></svg>