<svg xmlns="http://www.w3.org/2000/svg" xmlns:xlink="http://www.w3.org/1999/xlink" width="331" height="209" viewBox="0 0 331 209" fill="none"><defs><path id="path_0"
        transform="translate(0 0) rotate(0 165.5 104.5)"
        d="M18,209L313,209C322.94,209 331,200.94 331,191L331,18C331,8.06 322.94,0 313,0L18,0C8.06,0 0,8.06 0,18L0,191C0,200.94 8.06,209 18,209Z" /><linearGradient id="linear_0" x1="-24.272475723698918%" y1="-41.88512713701158%" x2="78.69191087334586%" y2="119.08769500717857%" gradientUnits="objectBoundingBox"><stop offset="0" stop-color="#9650FE" stop-opacity="1" /><stop offset="0.3954054595543315" stop-color="#50CBFE" stop-opacity="1" /><stop offset="0.7369796485511925" stop-color="#FE50A9" stop-opacity="1" /><stop offset="1" stop-color="#44A0F6" stop-opacity="1" /></linearGradient><linearGradient id="linear_1" x1="67.11033971585785%" y1="100%" x2="6.828217004016429%" y2="-28.451723048233763%" gradientUnits="objectBoundingBox"><stop offset="0" stop-color="#FF829C" stop-opacity="1" /><stop offset="1" stop-color="#FFD0A0" stop-opacity="1" /></linearGradient><linearGradient id="linear_2" x1="-64.02125614074433%" y1="131.30563371572413%" x2="119.63155151055291%" y2="-58.13547933424674%" gradientUnits="objectBoundingBox"><stop offset="0" stop-color="#21D4FD" stop-opacity="1" /><stop offset="1" stop-color="#B721FF" stop-opacity="1" /></linearGradient><linearGradient id="linear_3" x1="1.1102230246251565e-14%" y1="100%" x2="99.99999999999999%" y2="3.749399456654644e-31%" gradientUnits="objectBoundingBox"><stop offset="0" stop-color="#B6CEE8" stop-opacity="1" /><stop offset="1" stop-color="#F578DC" stop-opacity="1" /></linearGradient></defs><g opacity="1" transform="translate(0 0)  rotate(0 165.5 104.5)"><mask id="mask-0" fill="white"><use xlink:href="#path_0"></use></mask><g mask="url(#mask-0)"><path id="Rectangle" fill-rule="evenodd" fill="url(#linear_0)" transform="translate(0 0)  rotate(0 165.5 104.5)" opacity="1" d="M18,209L313,209C322.94,209 331,200.94 331,191L331,18C331,8.06 322.94,0 313,0L18,0C8.06,0 0,8.06 0,18L0,191C0,200.94 8.06,209 18,209Z " /></g><g mask="url(#mask-0)"><path id="Oval" fill-rule="evenodd" fill="url(#linear_1)" transform="translate(146.4215277777766 112.609375)  rotate(0 77.69305555555555 77.8984375)" opacity="1" d="M155.39,77.9C155.39,34.88 120.6,0 77.69,0C34.79,0 0,34.88 0,77.9C0,120.91 34.79,155.8 77.69,155.8C120.6,155.8 155.39,120.91 155.39,77.9Z " /></g><g mask="url(#mask-0)"><path id="Rectangle 2 Copy 11" fill-rule="evenodd" fill="url(#linear_2)" transform="translate(-22.41145833333576 92.96809090698298)  rotate(-360 148.93970276386935 105.0512312869405)" opacity="1" d="M22.4,159.34C22.4,159.34 109.89,226.81 148.61,204.6C187.34,182.41 318.79,170.41 295.02,145.14C288.08,137.76 290.19,77.15 177.57,79.8C69.53,82.34 67.23,-7.56 22.4,0.5C-22.4,8.57 22.4,159.34 22.4,159.34Z " /></g><g mask="url(#mask-0)"><path id="Rectangle 2" fill-rule="evenodd" fill="url(#linear_3)" transform="translate(136.1975760736932 -99.3256419664358)  rotate(55 29.80445194462743 110.08421997636616)" opacity="1" d="M29.83,220.17L29.94,220.17C37.81,220.18 45.36,217.06 50.93,211.5C56.5,205.93 59.62,198.38 59.61,190.51L59.41,29.63C59.39,13.27 46.14,0.02 29.78,0L29.67,0C21.8,-0.01 14.25,3.11 8.68,8.67C3.11,14.24 -0.01,21.79 0,29.66L0.2,190.54C0.22,206.9 13.47,220.15 29.83,220.17Z " /></g></g></svg>