<svg xmlns="http://www.w3.org/2000/svg" xmlns:xlink="http://www.w3.org/1999/xlink" width="331" height="209" viewBox="0 0 331 209" fill="none"><defs><path id="path_0"
        transform="translate(0 0) rotate(0 165.5 104.5)"
        d="M18,209L313,209C322.94,209 331,200.94 331,191L331,18C331,8.06 322.94,0 313,0L18,0C8.06,0 0,8.06 0,18L0,191C0,200.94 8.06,209 18,209Z" /><linearGradient id="linear_0" x1="50%" y1="0%" x2="51%" y2="100%" gradientUnits="objectBoundingBox"><stop offset="0" stop-color="#3D3093" stop-opacity="1" /><stop offset="1" stop-color="#FF10EC" stop-opacity="1" /></linearGradient><linearGradient id="linear_1" x1="-1.1102230246251565e-14%" y1="50.000000000000014%" x2="99.99999999999999%" y2="49.999999999999986%" gradientUnits="objectBoundingBox"><stop offset="0" stop-color="#3D3093" stop-opacity="1" /><stop offset="1" stop-color="#FF10EC" stop-opacity="1" /></linearGradient><linearGradient id="linear_2" x1="50.000000000000036%" y1="100%" x2="49.999999999999936%" y2="-2.4894981252573965e-15%" gradientUnits="objectBoundingBox"><stop offset="0" stop-color="#FDB677" stop-opacity="1" /><stop offset="1" stop-color="#FF10EC" stop-opacity="1" /></linearGradient><linearGradient id="linear_3" x1="113.32098219231715%" y1="17.342507729341104%" x2="-15.287097948721462%" y2="81.88199631121952%" gradientUnits="objectBoundingBox"><stop offset="0" stop-color="#B465DA" stop-opacity="1" /><stop offset="0.2480656081998273" stop-color="#CF6CC9" stop-opacity="1" /><stop offset="0.7468402146596317" stop-color="#EE609C" stop-opacity="1" /><stop offset="1" stop-color="#EE609C" stop-opacity="1" /></linearGradient><linearGradient id="linear_4" x1="2.220446049250313e-14%" y1="50.000000000000036%" x2="100.00000000000003%" y2="49.999999999999964%" gradientUnits="objectBoundingBox"><stop offset="0" stop-color="#FDB677" stop-opacity="1" /><stop offset="1" stop-color="#FF10EC" stop-opacity="1" /></linearGradient></defs><g opacity="1" transform="translate(0 0)  rotate(0 165.5 104.5)"><mask id="mask-0" fill="white"><use xlink:href="#path_0"></use></mask><g mask="url(#mask-0)"><path id="Rectangle" fill-rule="evenodd" fill="url(#linear_0)" transform="translate(0 0)  rotate(0 165.5 104.5)" opacity="1" d="M18,209L313,209C322.94,209 331,200.94 331,191L331,18C331,8.06 322.94,0 313,0L18,0C8.06,0 0,8.06 0,18L0,191C0,200.94 8.06,209 18,209Z " /></g><g mask="url(#mask-0)"><path id="Oval" fill-rule="evenodd" fill="url(#linear_1)" transform="translate(30.45378939626244 68.58233853970887)  rotate(0 83.84324419075845 67.2746016355059)" opacity="0.38" d="M167.69,25.82C167.69,-7.4 129.79,0.93 96.65,0.93C63.52,0.93 -26.31,29.74 7.48,69.37C41.27,109.03 68.16,69.37 96.65,121.23C125.16,173.08 167.69,59.04 167.69,25.82Z " /></g><g mask="url(#mask-0)"><path id="Rectangle 3" fill-rule="evenodd" fill="url(#linear_2)" transform="translate(0 -10.69140625)  rotate(0 86.62835004688645 129.02572307180856)" opacity="0.4" d="M0,236.68C0,236.68 50.76,297.53 86.63,185.07C101.7,137.77 160.11,124.46 168.72,102.78C192.23,43.61 94.01,0 94.01,0L0,0L0,236.68Z " /></g><g mask="url(#mask-0)"><path id="Rectangle 4" fill-rule="evenodd" fill="url(#linear_3)" transform="translate(113.8570543249116 93.01953125)  rotate(0 108.5714728375443 66.49023437500045)" opacity="1" d="M0,132.98L217.14,132.98L217.14,0C217.14,0 185.66,59.46 101.75,59.46C17.85,59.46 0,132.98 0,132.98Z " /></g><g mask="url(#mask-0)"><path id="Rectangle 2" fill-rule="evenodd" fill="url(#linear_4)" transform="translate(74.01527777777665 -81.90625)  rotate(0 129.41180555555556 94.97392585188125)" opacity="1" d="M258.82,46.5C258.82,46.5 -86.89,-63.2 29.17,85.91C88.52,162.2 101.59,88.44 141.47,173.25C165.16,223.57 258.82,122.21 258.82,122.21L258.82,46.5Z " /></g></g></svg>